<?xml version="1.0" encoding="utf-8"?><!-- Generator: Adobe Illustrator 21.0.0, SVG Export Plug-In . SVG Version: 6.00 Build 0)  --><svg version="1.1" id="Layer_1" xmlns="http://www.w3.org/2000/svg" xmlns:xlink="http://www.w3.org/1999/xlink" x="0px" y="0px" width="1920px" height="1080px" viewBox="0 0 1920 1080" style="enable-background:new 0 0 1920 1080;" xml:space="preserve"><style type="text/css">.st0{fill:#242424;}.st1{fill:#353535;}.st2{fill:#FFFFFF;}.st3{fill:#FFE019;}</style><rect class="st0" width="1920" height="1080"/><rect y="680" class="st1" width="1920" height="400"/><path class="st2" d="M529.2,508.4c5-12.6-1-27-13.5-32.4l-8.6-3.7l-50.7,38c2.4-13.1,5.1-27.1,8.1-40.9c0,0,25.1-9.7,27-14.1c-13.2,1-26.2-4.1-26.2-4.1s-14.3-6.1-21-16.1c-1.8,4.1,8.5,29.3,8.5,29.3c-7.9,11.7-16.2,23.3-24,34.1l-7.6-63l-8.6-3.7c-12.5-5.4-27,0.3-32.7,12.6l0,0L326.5,569c-2.8-13.9-14.8-24.3-30.7-23.2c-17.4,1.2-28.4,15.1-27.3,31.3c0,0,0.9,12.4,1.4,20.6c1.1,15.9,13.9,28.5,31.3,27.3c0.5,0,0.9-0.1,1.4-0.2l-7.1,16.7L281,743.9c-18.7,18.1-45.7,44.3-53.6,51.8c-14.6,13.9-16.5,36.4-1.3,52.4c15.2,16,37.5,15.4,52.4,1.3l72.4-70L366,671.7l29.6,12.6c17.7,75.1,40,169.7,42.4,179.6c4.6,19.6,23.1,32.6,44.6,27.5c21.5-5.1,32.2-24.6,27.5-44.6l-44.7-189.4L529.2,508.4L529.2,508.4z"/><path class="st2" d="M470.1,440c35.1,15,75.7-1.3,90.7-36.3c15-35.1-1.3-75.7-36.3-90.7c-35.1-15-75.7,1.3-90.7,36.3C418.7,384.4,435,425,470.1,440z M538.7,397c0-5,4-9,9-9c5,0,9,4,9,9c0,5-4,9-9,9C542.8,406,538.7,402,538.7,397z M493.4,397c0-5,4-9,9-9c5,0,9,4,9,9c0,5-4,9-9,9C497.4,406,493.4,402,493.4,397z"/><path class="st2" d="M587.4,525.9c12.4,12.4,11.3,30.2,0,41.5c-5.9,5.8-14.6,14.6-14.6,14.6c-11.5,11.5-29.1,12.4-41.5,0c-12.4-12.4-11.3-30.2,0-41.5c5.9-5.9,14.6-14.6,14.6-14.6C557.4,514.4,575.1,513.5,587.4,525.9z"/><path class="st3" d="M598.6,519.6l-5.6-5.6c-0.8-0.8-2.1-0.8-2.9,0l-7.8,7.8c1.8,1.2,3.5,2.6,5.1,4.2c1.3,1.3,2.5,2.7,3.6,4.2l7.7-7.7C599.4,521.7,599.4,520.4,598.6,519.6z"/><path class="st3" d="M627.8,856.8c-10.4-1.3-16.2-2.3-16.2-2.3c-7-0.7-13.4,4.3-14.1,11.4c-0.7,7,2.8,11.6,11.4,14.1c2.5,0.7,8,1.8,14.8,3L627.8,856.8z"/><path class="st3" d="M680.8,861.8c-18.6-1.2-34.1-2.7-45.7-4.1l-4.2,26.5c15.3,2.5,33.7,5,40.2,4.7c10.8-0.4,21.3-9.5,22.1-16.6C694,865.2,686.9,862.1,680.8,861.8z"/><path class="st3" d="M752.3,822c-10.4,0.8-16.3,1.3-16.3,1.3c-7.1,0.4-13-2.8-13.3-7.2c-0.3-4.4,3.6-7.2,12.3-8.7c2.6-0.4,8.1-1.1,14.9-1.8L752.3,822z"/><path class="st3" d="M805.4,819.3c-18.6,0.6-34.2,1.4-45.8,2.2l-2.3-16.6c15.5-1.5,33.9-2.8,40.4-2.6c10.8,0.4,20.6,6.1,20.8,10.5C818.8,817.2,811.6,819.1,805.4,819.3z"/><path class="st3" d="M881.1,856.2c-10.3-1.7-16.1-2.9-16.1-2.9c-7-1-13.5,3.8-14.5,10.8c-1,7,2.4,11.7,10.9,14.5c2.5,0.8,7.9,2.1,14.6,3.6L881.1,856.2z"/><path class="st3" d="M933.9,863.1c-18.5-1.9-34-4-45.5-5.8l-5.1,26.3c15.2,3.1,33.5,6.2,40,6.2c10.8,0,21.7-8.7,22.7-15.7C947,867.1,940,863.7,933.9,863.1z"/><path class="st3" d="M1001.9,823.7c-10.3,1.8-16.1,2.9-16.1,2.9c-7,1.1-13.2-1.6-13.9-5.9c-0.7-4.4,2.9-7.5,11.4-9.9c2.5-0.7,8-1.9,14.7-3.2L1001.9,823.7z"/><path class="st3" d="M1054.5,815.9c-18.4,2.4-33.9,4.7-45.4,6.6l-3.9-16.3c15.2-2.9,33.5-6.1,40-6.5c10.7-0.7,21.1,4.1,21.8,8.5C1067.6,812.5,1060.6,815.1,1054.5,815.9z"/><path class="st3" d="M1104.4,854.6c-10.1-2.7-15.7-4.5-15.7-4.5c-6.9-1.7-13.8,2.5-15.5,9.4c-1.7,6.9,1.2,11.9,9.4,15.5c2.4,1.1,7.7,2.9,14.2,5L1104.4,854.6z"/><path class="st3" d="M1156.2,866.7c-18.2-3.7-33.4-7.3-44.7-10.2l-7.7,25.7c14.8,4.6,32.7,9.5,39.2,10.1c10.8,1,22.4-6.6,24.1-13.4C1168.8,871.9,1162.2,867.9,1156.2,866.7z"/><path class="st3" d="M626.5,460.4c6.9,0,13.3,2.7,18.2,7.5c4.9,4.9,7.5,11.3,7.5,18.2c0,6.9-2.7,13.3-7.5,18.2c-4.9,4.9-11.3,7.5-18.2,7.5c-6.9,0-13.3-2.7-18.2-7.5c-10-10-10-26.3,0-36.3C613.1,463.1,619.6,460.4,626.5,460.4 M626.5,450.2c-9.2,0-18.4,3.5-25.4,10.5c-14,14-14,36.8,0,50.8c7,7,16.2,10.5,25.4,10.5c9.2,0,18.4-3.5,25.4-10.5c14-14,14-36.8,0-50.8C644.8,453.7,635.6,450.2,626.5,450.2L626.5,450.2z"/></svg>